<svg xmlns="http://www.w3.org/2000/svg" version="1.1" xmlns:xlink="http://www.w3.org/1999/xlink" xmlns:svgjs="http://svgjs.com/svgjs" width="1440" height="560" preserveAspectRatio="none" viewBox="0 0 1440 560"><g mask="url(&quot;#SvgjsMask1004&quot;)" fill="none"><path d="M784.59 209.35L826.95 209.35L826.95 251.71L784.59 251.71z" stroke="rgba(3, 123, 11, 0.26)"></path><path d="M1324.97 464.86L1364.08 464.86L1364.08 503.97L1324.97 503.97z" stroke="rgba(211, 183, 20, 0.28)"></path><path d="M635.52 317.12a30.38 30.38 0 1 0-18.23 57.96z" fill="rgba(211, 183, 20, 0.28)"></path><path d="M203.44 123.85 a35.15 35.15 0 1 0 70.3 0 a35.15 35.15 0 1 0 -70.3 0z" fill="rgba(211, 183, 20, 0.28)"></path><path d="M1311.34 297.56L1343.66 297.56L1343.66 329.88L1311.34 329.88z" fill="rgba(3, 123, 11, 0.26)"></path><path d="M1284.74-5.1a34.72 34.72 0 1 0-7.98 68.98z" stroke="rgba(211, 183, 20, 0.28)"></path><path d="M140.24 65.58a32.13 32.13 0 1 0 51.37 38.6z" stroke="rgba(211, 183, 20, 0.28)"></path><path d="M1102.45 209.45L1117.29 209.45L1117.29 209.54L1102.45 209.54z" fill="rgba(231, 54, 53, 0.27)"></path><path d="M1385.67 299.42L1441.12 299.42L1441.12 354.58L1385.67 354.58z" fill="rgba(231, 54, 53, 0.27)"></path><path d="M1040.71 390.47L1065.35 390.47L1065.35 415.11L1040.71 415.11z" fill="rgba(3, 123, 11, 0.26)"></path><path d="M1285 445.35L1331.13 445.35L1331.13 491.48L1285 491.48z" fill="rgba(211, 183, 20, 0.28)"></path><path d="M465.59 128.26a53.42 53.42 0 1 0-105.86-14.46z" fill="rgba(231, 54, 53, 0.27)"></path><path d="M1365.5 532.06 a32.29 32.29 0 1 0 64.58 0 a32.29 32.29 0 1 0 -64.58 0z" fill="rgba(211, 183, 20, 0.28)"></path><path d="M971.25 336.9a8.24 8.24 0 1 0 15.74 4.88z" stroke="rgba(211, 183, 20, 0.28)"></path><path d="M389.33 411.03 a55.09 55.09 0 1 0 110.18 0 a55.09 55.09 0 1 0 -110.18 0z" fill="rgba(231, 54, 53, 0.27)"></path><path d="M1336.18 96.77a23.93 23.93 0 1 0-28.59 38.38z" fill="rgba(3, 123, 11, 0.26)"></path><path d="M868.76 253.69L891.98 253.69L891.98 276.91L868.76 276.91z" fill="rgba(211, 183, 20, 0.28)"></path><path d="M1122.96 452.69L1136.09 452.69L1136.09 503.41L1122.96 503.41z" stroke="rgba(231, 54, 53, 0.27)"></path><path d="M706.01 526.81L710.02 526.81L710.02 534.21L706.01 534.21z" stroke="rgba(211, 183, 20, 0.28)"></path><path d="M112.67 255.36a0.34 0.34 0 1 0 0.37 0.57z" fill="rgba(211, 183, 20, 0.28)"></path><path d="M25.18 264.3a51.44 51.44 0 1 0 93.56 42.78z" fill="rgba(211, 183, 20, 0.28)"></path><path d="M1216.06 299.83a25.97 25.97 0 1 0-17.83-48.78z" fill="rgba(211, 183, 20, 0.28)"></path><path d="M1040.35 254.27a9.46 9.46 0 1 0-7.02-17.57z" fill="rgba(211, 183, 20, 0.28)"></path><path d="M248.01 353.13L287.93 353.13L287.93 393.05L248.01 393.05z" stroke="rgba(231, 54, 53, 0.27)"></path><path d="M1100.46 42.52a31.59 31.59 0 1 0-2.81-63.12z" stroke="rgba(231, 54, 53, 0.27)"></path><path d="M396.08 202.63L411.1 202.63L411.1 256.57L396.08 256.57z" fill="rgba(231, 54, 53, 0.27)"></path><path d="M1333.64 333.75 a38.46 38.46 0 1 0 76.92 0 a38.46 38.46 0 1 0 -76.92 0z" stroke="rgba(3, 123, 11, 0.26)"></path><path d="M1020.8 268.4L1073.82 268.4L1073.82 305.22L1020.8 305.22z" stroke="rgba(231, 54, 53, 0.27)"></path><path d="M924.67 123.09a49.45 49.45 0 1 0-98.64-7.16z" fill="rgba(231, 54, 53, 0.27)"></path><path d="M-16.48 44.01a41.57 41.57 0 1 0 57.84 59.73z" fill="rgba(231, 54, 53, 0.27)"></path><path d="M1235.85 490.94L1286.94 490.94L1286.94 537.73L1235.85 537.73z" fill="rgba(211, 183, 20, 0.28)"></path><path d="M440.15 278.46 a55.17 55.17 0 1 0 110.34 0 a55.17 55.17 0 1 0 -110.34 0z" stroke="rgba(231, 54, 53, 0.27)"></path><path d="M591.95 65.32a46.24 46.24 0 1 0-91.99-9.46z" fill="rgba(211, 183, 20, 0.28)"></path></g><defs><mask id="SvgjsMask1004"><rect width="1440" height="560" fill="#ffffff"></rect></mask></defs></svg>